G04 #@! TF.GenerationSoftware,KiCad,Pcbnew,6.0.5*
G04 #@! TF.CreationDate,2022-08-08T14:50:09-05:00*
G04 #@! TF.ProjectId,8ch_mas_flex,3863685f-6d61-4735-9f66-6c65782e6b69,rev?*
G04 #@! TF.SameCoordinates,Original*
G04 #@! TF.FileFunction,Profile,NP*
%FSLAX46Y46*%
G04 Gerber Fmt 4.6, Leading zero omitted, Abs format (unit mm)*
G04 Created by KiCad (PCBNEW 6.0.5) date 2022-08-08 14:50:09*
%MOMM*%
%LPD*%
G01*
G04 APERTURE LIST*
G04 #@! TA.AperFunction,Profile*
%ADD10C,0.040000*%
G04 #@! TD*
G04 #@! TA.AperFunction,Profile*
%ADD11C,0.150000*%
G04 #@! TD*
G04 #@! TA.AperFunction,Profile*
%ADD12C,0.100000*%
G04 #@! TD*
G04 APERTURE END LIST*
D10*
X-44060000Y-77900000D02*
X-44060000Y-81900000D01*
X408610080Y-129133132D02*
X408686000Y-131267200D01*
X-96215132Y-105139500D02*
X-127524232Y-105139500D01*
X-96215132Y-90639500D02*
X-127544232Y-90639500D01*
X-54900000Y-113900000D02*
G75*
G03*
X-57900000Y-116900000I1J-3000001D01*
G01*
X-44060000Y-113900000D02*
X-54900000Y-113900000D01*
D11*
X-85325527Y-145525000D02*
G75*
G03*
X-85325527Y-145525000I-1149473J0D01*
G01*
D10*
X-57900000Y-78900000D02*
X-57900000Y-47100000D01*
D12*
X393610080Y-81933132D02*
X-39260000Y-81900000D01*
D10*
X-57900000Y-78900000D02*
G75*
G03*
X-54900000Y-81900000I3000001J1D01*
G01*
X393610080Y-81933107D02*
G75*
G03*
X408736800Y-67056000I88620J15038707D01*
G01*
X-57900000Y-148700000D02*
X-148298600Y-148700000D01*
D12*
X-96215132Y-90639500D02*
X-94000000Y-92800000D01*
D10*
X-39260000Y-81900000D02*
X-39260000Y-77900000D01*
D12*
X393610080Y-114193632D02*
X-39260000Y-113900000D01*
X-94000000Y-104200000D02*
X-96215132Y-105139500D01*
D10*
X408610093Y-129133132D02*
G75*
G03*
X393610080Y-114193632I-15235193J-296768D01*
G01*
D11*
X-143974127Y-50275000D02*
G75*
G03*
X-143974127Y-50275000I-1149473J0D01*
G01*
X-85325527Y-50275000D02*
G75*
G03*
X-85325527Y-50275000I-1149473J0D01*
G01*
D10*
X-57900000Y-116900000D02*
X-57900000Y-148700000D01*
X-148298600Y-131605800D02*
X-148298600Y-148700000D01*
X408686000Y-131267200D02*
X419349580Y-131267200D01*
X-39260000Y-77900000D02*
X-44060000Y-77900000D01*
X-44060000Y-117900000D02*
X-44060000Y-113900000D01*
D11*
X-143974127Y-145525000D02*
G75*
G03*
X-143974127Y-145525000I-1149473J0D01*
G01*
D12*
X-94000000Y-92800000D02*
X-94000000Y-104200000D01*
X-127524232Y-105139500D02*
X-127544232Y-90639500D01*
D10*
X408736800Y-67056000D02*
X419349580Y-67056000D01*
X-39260000Y-117900000D02*
X-44060000Y-117900000D01*
X-57900000Y-47100000D02*
X-148298600Y-47100000D01*
X-39260000Y-113900000D02*
X-39260000Y-117900000D01*
X-148298600Y-131605800D02*
X-148298600Y-64194200D01*
X-148298600Y-64194200D02*
X-148298600Y-47100000D01*
X419349580Y-67056000D02*
X419349580Y-131267200D01*
X-54900000Y-81900000D02*
X-44060000Y-81900000D01*
M02*
