M48
; DRILL file {KiCad 6.0.4} date Wed 04 May 2022 09:44:36 PM CDT
; FORMAT={-:-/ absolute / inch / decimal}
; #@! TF.CreationDate,2022-05-04T21:44:36-05:00
; #@! TF.GenerationSoftware,Kicad,Pcbnew,6.0.4
; #@! TF.FileFunction,Plated,1,2,PTH
FMAT,2
INCH
; #@! TA.AperFunction,Plated,PTH,ViaDrill
T1C0.0098
; #@! TA.AperFunction,Plated,PTH,ViaDrill
T2C0.0157
; #@! TA.AperFunction,Plated,PTH,ComponentDrill
T3C0.0335
; #@! TA.AperFunction,Plated,PTH,ComponentDrill
T4C0.1083
%
G90
G05
T1
X-5.4797Y-3.4995
X-5.4561Y-3.409
X-5.3976Y-4.2047
X-5.3576Y-3.4917
X-5.338Y-3.3814
X-5.3228Y-3.2953
X-5.2789Y-3.5074
X-5.2435Y-3.4444
X-5.2395Y-3.4798
X-5.1732Y-4.3504
X-5.1569Y-3.4444
X-5.1535Y-3.3031
X-5.1293Y-3.4798
X-5.1017Y-3.5113
X-5.0906Y-3.2913
X-5.0394Y-3.3189
X-5.0197Y-4.2402
X-4.9921Y-4.2795
X-4.9646Y-3.4567
X-4.874Y-3.1535
X-4.8228Y-3.1299
X-4.7559Y-3.1378
X-4.7441Y-3.4173
X-4.7441Y-3.4488
X-4.7402Y-3.3858
X-4.7323Y-4.3386
X-4.728Y-4.512
X-4.6929Y-3.4488
X-4.6783Y-3.4145
X-4.6772Y-3.3307
X-4.6535Y-3.3543
X-4.6142Y-3.3504
X-4.5827Y-3.5236
X-4.548Y-3.364
X-4.5276Y-3.3346
X-4.4961Y-3.378
X-4.4961Y-4.185
X-4.4803Y-3.1535
X-4.4567Y-3.7362
X-4.4292Y-3.382
X-4.4094Y-4.3465
X-4.4Y-3.18
X-4.3895Y-4.2466
X-4.368Y-3.116
X-4.326Y-3.286
X-4.311Y-3.5984
X-4.2913Y-4.1772
X-4.2638Y-4.1496
X-4.2598Y-3.685
X-4.248Y-3.7244
X-4.1654Y-4.1102
X-4.1457Y-3.622
X16.0334Y-3.8305
X16.0453Y-3.9997
X16.0649Y-3.7832
X16.0768Y-3.862
X16.0925Y-3.8029
T2
X-5.2047Y-4.2771
X-5.185Y-4.2378
X-5.1063Y-4.2575
X-5.0669Y-4.3067
T3
X16.1876Y-3.0781
X16.1876Y-3.1781
X16.1876Y-3.2781
X16.1876Y-3.3781
X16.1876Y-3.4781
X16.1876Y-3.5781
X16.1876Y-3.6781
X16.1876Y-3.7781
X16.1876Y-3.8781
X16.1876Y-3.9781
X16.1876Y-4.0781
X16.1876Y-4.1781
X16.1876Y-4.2781
X16.1876Y-4.3781
X16.1876Y-4.4781
X16.1876Y-4.5781
X16.1876Y-4.6781
X16.2626Y-3.1281
X16.2626Y-3.2281
X16.2626Y-3.3281
X16.2626Y-3.4281
X16.2626Y-3.5281
X16.2626Y-3.6281
X16.2626Y-3.7281
X16.2626Y-3.8281
X16.2626Y-3.9281
X16.2626Y-4.0281
X16.2626Y-4.1281
X16.2626Y-4.2281
X16.2626Y-4.3281
X16.2626Y-4.4281
X16.2626Y-4.5281
X16.2626Y-4.6281
X16.2626Y-4.7281
X16.3376Y-3.0781
X16.3376Y-3.1781
X16.3376Y-3.2781
X16.3376Y-3.3781
X16.3376Y-3.4781
X16.3376Y-3.5781
X16.3376Y-3.6781
X16.3376Y-3.7781
X16.3376Y-3.8781
X16.3376Y-3.9781
X16.3376Y-4.0781
X16.3376Y-4.1781
X16.3376Y-4.2781
X16.3376Y-4.3781
X16.3376Y-4.4781
X16.3376Y-4.5781
X16.3376Y-4.6781
X16.4126Y-3.1281
X16.4126Y-3.2281
X16.4126Y-3.3281
X16.4126Y-3.4281
X16.4126Y-3.5281
X16.4126Y-3.6281
X16.4126Y-3.7281
X16.4126Y-3.8281
X16.4126Y-3.9281
X16.4126Y-4.0281
X16.4126Y-4.1281
X16.4126Y-4.2281
X16.4126Y-4.3281
X16.4126Y-4.4281
X16.4126Y-4.5281
X16.4126Y-4.6281
X16.4126Y-4.7281
T4
X16.3376Y-2.7631
X16.3376Y-5.0431
T0
M30
