G04 #@! TF.GenerationSoftware,KiCad,Pcbnew,6.0.4*
G04 #@! TF.CreationDate,2022-05-04T22:08:56-05:00*
G04 #@! TF.ProjectId,8ch_mas_flex,3863685f-6d61-4735-9f66-6c65782e6b69,rev?*
G04 #@! TF.SameCoordinates,Original*
G04 #@! TF.FileFunction,Soldermask,Top*
G04 #@! TF.FilePolarity,Negative*
%FSLAX46Y46*%
G04 Gerber Fmt 4.6, Leading zero omitted, Abs format (unit mm)*
G04 Created by KiCad (PCBNEW 6.0.4) date 2022-05-04 22:08:56*
%MOMM*%
%LPD*%
G01*
G04 APERTURE LIST*
%ADD10C,0.100000*%
%ADD11R,0.100000X0.300000*%
%ADD12C,1.350000*%
%ADD13C,4.150000*%
G04 APERTURE END LIST*
G04 #@! TO.C,U1*
G36*
X-117151250Y-106050000D02*
G01*
X-128051250Y-106050000D01*
X-128051250Y-105650000D01*
X-117151250Y-105650000D01*
X-117151250Y-106050000D01*
G37*
D10*
X-117151250Y-106050000D02*
X-128051250Y-106050000D01*
X-128051250Y-105650000D01*
X-117151250Y-105650000D01*
X-117151250Y-106050000D01*
G36*
X-138001250Y-90350000D02*
G01*
X-139701250Y-90350000D01*
X-139701250Y-89950000D01*
X-138001250Y-89950000D01*
X-138001250Y-90350000D01*
G37*
X-138001250Y-90350000D02*
X-139701250Y-90350000D01*
X-139701250Y-89950000D01*
X-138001250Y-89950000D01*
X-138001250Y-90350000D01*
G36*
X-138001250Y-106050000D02*
G01*
X-139651250Y-106050000D01*
X-139651250Y-105650000D01*
X-138001250Y-105650000D01*
X-138001250Y-106050000D01*
G37*
X-138001250Y-106050000D02*
X-139651250Y-106050000D01*
X-139651250Y-105650000D01*
X-138001250Y-105650000D01*
X-138001250Y-106050000D01*
G36*
X-129901250Y-106050000D02*
G01*
X-132501250Y-106050000D01*
X-132501250Y-105650000D01*
X-129901250Y-105650000D01*
X-129901250Y-106050000D01*
G37*
X-129901250Y-106050000D02*
X-132501250Y-106050000D01*
X-132501250Y-105650000D01*
X-129901250Y-105650000D01*
X-129901250Y-106050000D01*
G36*
X-117101250Y-90350000D02*
G01*
X-124651250Y-90350000D01*
X-124651250Y-89950000D01*
X-117101250Y-89950000D01*
X-117101250Y-90350000D01*
G37*
X-117101250Y-90350000D02*
X-124651250Y-90350000D01*
X-124651250Y-89950000D01*
X-117101250Y-89950000D01*
X-117101250Y-90350000D01*
G36*
X-129901250Y-90350000D02*
G01*
X-132501250Y-90350000D01*
X-132501250Y-89950000D01*
X-129901250Y-89950000D01*
X-129901250Y-90350000D01*
G37*
X-129901250Y-90350000D02*
X-132501250Y-90350000D01*
X-132501250Y-89950000D01*
X-129901250Y-89950000D01*
X-129901250Y-90350000D01*
G04 #@! TD*
D11*
G04 #@! TO.C,U1*
X-117232350Y-105846400D03*
X-117232350Y-90157120D03*
X-118058350Y-90157120D03*
X-118302350Y-90157120D03*
X-118546350Y-90157120D03*
X-118790350Y-90157120D03*
X-119034350Y-90157120D03*
X-119278350Y-90157120D03*
X-119522350Y-90157120D03*
X-119766350Y-90157120D03*
X-120010350Y-90157120D03*
X-120254350Y-90157120D03*
X-120498350Y-90157120D03*
X-120742350Y-90157120D03*
X-120986350Y-90157120D03*
X-121230350Y-90157120D03*
X-121474350Y-90157120D03*
X-121718350Y-90157120D03*
X-121962350Y-90157120D03*
X-122206350Y-90157120D03*
X-122450350Y-90157120D03*
X-122694350Y-90157120D03*
X-122938350Y-90157120D03*
X-123182350Y-90157120D03*
X-123808650Y-90157120D03*
X-124208650Y-90157120D03*
X-124603650Y-90157120D03*
X-129977650Y-90157120D03*
X-130377650Y-90157120D03*
X-130777650Y-90157120D03*
X-131193650Y-90157120D03*
X-131609650Y-90157120D03*
X-132009650Y-90157120D03*
X-132409650Y-90157120D03*
X-138098650Y-90157120D03*
X-138639150Y-90157120D03*
X-139569150Y-90157120D03*
X-139569150Y-105846400D03*
X-138639150Y-105846400D03*
X-138094350Y-105846400D03*
X-132409650Y-105846400D03*
X-132009650Y-105846400D03*
X-131609650Y-105846400D03*
X-131193650Y-105846400D03*
X-130777650Y-105846400D03*
X-130377650Y-105846400D03*
X-129977650Y-105846400D03*
X-127949850Y-105846400D03*
X-127549850Y-105846400D03*
X-127149850Y-105846400D03*
X-126749850Y-105846400D03*
X-126349850Y-105846400D03*
X-125949850Y-105846400D03*
X-125549850Y-105846400D03*
X-125149850Y-105846400D03*
X-124749850Y-105846400D03*
X-124349850Y-105846400D03*
X-123949850Y-105846400D03*
X-123549850Y-105846400D03*
X-123149850Y-105846400D03*
X-122749850Y-105846400D03*
X-122349850Y-105846400D03*
X-121962350Y-105846400D03*
X-121718350Y-105846400D03*
X-121474350Y-105846400D03*
X-121230350Y-105846400D03*
X-120986350Y-105846400D03*
X-120742350Y-105846400D03*
X-120498350Y-105846400D03*
X-120254350Y-105846400D03*
X-120010350Y-105846400D03*
X-119766350Y-105846400D03*
X-119522350Y-105846400D03*
X-119278350Y-105846400D03*
X-119034350Y-105846400D03*
X-118790350Y-105846400D03*
X-118546350Y-105846400D03*
X-118302350Y-105846400D03*
X-118058350Y-105846400D03*
G04 #@! TD*
D12*
G04 #@! TO.C,J1*
X411164516Y-78183542D03*
X413069516Y-79453542D03*
X411164516Y-80723542D03*
X413069516Y-81993542D03*
X411164516Y-83263542D03*
X413069516Y-84533542D03*
X411164516Y-85803542D03*
X413069516Y-87073542D03*
X411164516Y-88343542D03*
X413069516Y-89613542D03*
X411164516Y-90883542D03*
X413069516Y-92153542D03*
X411164516Y-93423542D03*
X413069516Y-94693542D03*
X411164516Y-95963542D03*
X413069516Y-97233542D03*
X411164516Y-98503542D03*
X413069516Y-99773542D03*
X411164516Y-101043542D03*
X413069516Y-102313542D03*
X411164516Y-103583542D03*
X413069516Y-104853542D03*
X411164516Y-106123542D03*
X413069516Y-107393542D03*
X411164516Y-108663542D03*
X413069516Y-109933542D03*
X411164516Y-111203542D03*
X413069516Y-112473542D03*
X411164516Y-113743542D03*
X413069516Y-115013542D03*
X411164516Y-116283542D03*
X413069516Y-117553542D03*
X411164516Y-118823542D03*
X413069516Y-120093542D03*
X414974516Y-78183542D03*
X416879516Y-79453542D03*
X414974516Y-80723542D03*
X416879516Y-81993542D03*
X414974516Y-83263542D03*
X416879516Y-84533542D03*
X414974516Y-85803542D03*
X416879516Y-87073542D03*
X414974516Y-88343542D03*
X416879516Y-89613542D03*
X414974516Y-90883542D03*
X416879516Y-92153542D03*
X414974516Y-93423542D03*
X416879516Y-94693542D03*
X414974516Y-95963542D03*
X416879516Y-97233542D03*
X414974516Y-98503542D03*
X416879516Y-99773542D03*
X414974516Y-101043542D03*
X416879516Y-102313542D03*
X414974516Y-103583542D03*
X416879516Y-104853542D03*
X414974516Y-106123542D03*
X416879516Y-107393542D03*
X414974516Y-108663542D03*
X416879516Y-109933542D03*
X414974516Y-111203542D03*
X416879516Y-112473542D03*
X414974516Y-113743542D03*
X416879516Y-115013542D03*
X414974516Y-116283542D03*
X416879516Y-117553542D03*
X414974516Y-118823542D03*
X416879516Y-120093542D03*
D13*
X414974516Y-128093542D03*
X414974516Y-70183542D03*
G04 #@! TD*
M02*
