G04 #@! TF.GenerationSoftware,KiCad,Pcbnew,6.0.4*
G04 #@! TF.CreationDate,2022-05-04T22:08:56-05:00*
G04 #@! TF.ProjectId,8ch_mas_flex,3863685f-6d61-4735-9f66-6c65782e6b69,rev?*
G04 #@! TF.SameCoordinates,Original*
G04 #@! TF.FileFunction,Paste,Top*
G04 #@! TF.FilePolarity,Positive*
%FSLAX46Y46*%
G04 Gerber Fmt 4.6, Leading zero omitted, Abs format (unit mm)*
G04 Created by KiCad (PCBNEW 6.0.4) date 2022-05-04 22:08:56*
%MOMM*%
%LPD*%
G01*
G04 APERTURE LIST*
%ADD10R,0.100000X0.300000*%
G04 APERTURE END LIST*
D10*
G04 #@! TO.C,U1*
X-117232350Y-105846400D03*
X-117232350Y-90157120D03*
X-118058350Y-90157120D03*
X-118302350Y-90157120D03*
X-118546350Y-90157120D03*
X-118790350Y-90157120D03*
X-119034350Y-90157120D03*
X-119278350Y-90157120D03*
X-119522350Y-90157120D03*
X-119766350Y-90157120D03*
X-120010350Y-90157120D03*
X-120254350Y-90157120D03*
X-120498350Y-90157120D03*
X-120742350Y-90157120D03*
X-120986350Y-90157120D03*
X-121230350Y-90157120D03*
X-121474350Y-90157120D03*
X-121718350Y-90157120D03*
X-121962350Y-90157120D03*
X-122206350Y-90157120D03*
X-122450350Y-90157120D03*
X-122694350Y-90157120D03*
X-122938350Y-90157120D03*
X-123182350Y-90157120D03*
X-123808650Y-90157120D03*
X-124208650Y-90157120D03*
X-124603650Y-90157120D03*
X-129977650Y-90157120D03*
X-130377650Y-90157120D03*
X-130777650Y-90157120D03*
X-131193650Y-90157120D03*
X-131609650Y-90157120D03*
X-132009650Y-90157120D03*
X-132409650Y-90157120D03*
X-138098650Y-90157120D03*
X-138639150Y-90157120D03*
X-139569150Y-90157120D03*
X-139569150Y-105846400D03*
X-138639150Y-105846400D03*
X-138094350Y-105846400D03*
X-132409650Y-105846400D03*
X-132009650Y-105846400D03*
X-131609650Y-105846400D03*
X-131193650Y-105846400D03*
X-130777650Y-105846400D03*
X-130377650Y-105846400D03*
X-129977650Y-105846400D03*
X-127949850Y-105846400D03*
X-127549850Y-105846400D03*
X-127149850Y-105846400D03*
X-126749850Y-105846400D03*
X-126349850Y-105846400D03*
X-125949850Y-105846400D03*
X-125549850Y-105846400D03*
X-125149850Y-105846400D03*
X-124749850Y-105846400D03*
X-124349850Y-105846400D03*
X-123949850Y-105846400D03*
X-123549850Y-105846400D03*
X-123149850Y-105846400D03*
X-122749850Y-105846400D03*
X-122349850Y-105846400D03*
X-121962350Y-105846400D03*
X-121718350Y-105846400D03*
X-121474350Y-105846400D03*
X-121230350Y-105846400D03*
X-120986350Y-105846400D03*
X-120742350Y-105846400D03*
X-120498350Y-105846400D03*
X-120254350Y-105846400D03*
X-120010350Y-105846400D03*
X-119766350Y-105846400D03*
X-119522350Y-105846400D03*
X-119278350Y-105846400D03*
X-119034350Y-105846400D03*
X-118790350Y-105846400D03*
X-118546350Y-105846400D03*
X-118302350Y-105846400D03*
X-118058350Y-105846400D03*
G04 #@! TD*
M02*
