M48
; DRILL file {KiCad 6.0.5} date Mon 08 Aug 2022 02:50:11 PM CDT
; FORMAT={-:-/ absolute / inch / decimal}
; #@! TF.CreationDate,2022-08-08T14:50:11-05:00
; #@! TF.GenerationSoftware,Kicad,Pcbnew,6.0.5
; #@! TF.FileFunction,Plated,1,2,PTH
FMAT,2
INCH
; #@! TA.AperFunction,Plated,PTH,ViaDrill
T1C0.0098
; #@! TA.AperFunction,Plated,PTH,ViaDrill
T2C0.0157
; #@! TA.AperFunction,Plated,PTH,ComponentDrill
T3C0.0335
; #@! TA.AperFunction,Plated,PTH,ViaDrill
T4C0.0941
; #@! TA.AperFunction,Plated,PTH,ComponentDrill
T5C0.1083
%
G90
G05
T1
X-4.6929Y-3.4995
X-4.6693Y-3.409
X-4.6109Y-4.2047
X-4.5709Y-3.4917
X-4.5512Y-3.3814
X-4.536Y-3.2953
X-4.4921Y-3.5074
X-4.4567Y-3.4444
X-4.4527Y-3.4798
X-4.3864Y-4.3504
X-4.3701Y-3.4444
X-4.3668Y-3.3031
X-4.3425Y-3.4798
X-4.3149Y-3.5113
X-4.3038Y-3.2913
X-4.2526Y-3.3189
X-4.2329Y-4.2402
X-4.2053Y-4.2795
X-4.1778Y-3.4567
X-4.0872Y-3.1535
X-4.036Y-3.1299
X-3.9691Y-3.1378
X-3.9573Y-3.4173
X-3.9573Y-3.4488
X-3.9534Y-3.3858
X-3.9455Y-4.3386
X-3.9412Y-4.512
X-3.9061Y-3.4488
X-3.8915Y-3.4145
X-3.8904Y-3.3307
X-3.8668Y-3.3543
X-3.8274Y-3.3504
X-3.7959Y-3.5236
X-3.7612Y-3.364
X-3.7408Y-3.3346
X-3.7093Y-3.378
X-3.7093Y-4.185
X-3.6935Y-3.1535
X-3.6424Y-3.382
X-3.6339Y-3.7402
X-3.6227Y-4.3465
X-3.6132Y-3.18
X-3.6027Y-4.2466
X-3.5812Y-3.116
X-3.5392Y-3.286
X-3.5242Y-3.5984
X-3.5046Y-4.1772
X-3.477Y-4.1496
X-3.473Y-3.685
X-3.4612Y-3.7244
X-3.3786Y-4.1102
X-3.3589Y-3.622
X16.0334Y-3.8305
X16.0453Y-3.9997
X16.0649Y-3.7832
X16.0768Y-3.862
X16.0925Y-3.8029
T2
X-4.4179Y-4.2771
X-4.3982Y-4.2378
X-4.3195Y-4.2575
X-4.2801Y-4.3067
T3
X16.1876Y-3.0781
X16.1876Y-3.1781
X16.1876Y-3.2781
X16.1876Y-3.3781
X16.1876Y-3.4781
X16.1876Y-3.5781
X16.1876Y-3.6781
X16.1876Y-3.7781
X16.1876Y-3.8781
X16.1876Y-3.9781
X16.1876Y-4.0781
X16.1876Y-4.1781
X16.1876Y-4.2781
X16.1876Y-4.3781
X16.1876Y-4.4781
X16.1876Y-4.5781
X16.1876Y-4.6781
X16.2626Y-3.1281
X16.2626Y-3.2281
X16.2626Y-3.3281
X16.2626Y-3.4281
X16.2626Y-3.5281
X16.2626Y-3.6281
X16.2626Y-3.7281
X16.2626Y-3.8281
X16.2626Y-3.9281
X16.2626Y-4.0281
X16.2626Y-4.1281
X16.2626Y-4.2281
X16.2626Y-4.3281
X16.2626Y-4.4281
X16.2626Y-4.5281
X16.2626Y-4.6281
X16.2626Y-4.7281
X16.3376Y-3.0781
X16.3376Y-3.1781
X16.3376Y-3.2781
X16.3376Y-3.3781
X16.3376Y-3.4781
X16.3376Y-3.5781
X16.3376Y-3.6781
X16.3376Y-3.7781
X16.3376Y-3.8781
X16.3376Y-3.9781
X16.3376Y-4.0781
X16.3376Y-4.1781
X16.3376Y-4.2781
X16.3376Y-4.3781
X16.3376Y-4.4781
X16.3376Y-4.5781
X16.3376Y-4.6781
X16.4126Y-3.1281
X16.4126Y-3.2281
X16.4126Y-3.3281
X16.4126Y-3.4281
X16.4126Y-3.5281
X16.4126Y-3.6281
X16.4126Y-3.7281
X16.4126Y-3.8281
X16.4126Y-3.9281
X16.4126Y-4.0281
X16.4126Y-4.1281
X16.4126Y-4.2281
X16.4126Y-4.3281
X16.4126Y-4.4281
X16.4126Y-4.5281
X16.4126Y-4.6281
X16.4126Y-4.7281
T4
X-1.6404Y-3.1457
X-1.6404Y-4.563
T5
X16.3376Y-2.7631
X16.3376Y-5.0431
T0
M30
