G04 #@! TF.GenerationSoftware,KiCad,Pcbnew,6.0.5*
G04 #@! TF.CreationDate,2022-08-08T14:50:09-05:00*
G04 #@! TF.ProjectId,8ch_mas_flex,3863685f-6d61-4735-9f66-6c65782e6b69,rev?*
G04 #@! TF.SameCoordinates,Original*
G04 #@! TF.FileFunction,Soldermask,Top*
G04 #@! TF.FilePolarity,Negative*
%FSLAX46Y46*%
G04 Gerber Fmt 4.6, Leading zero omitted, Abs format (unit mm)*
G04 Created by KiCad (PCBNEW 6.0.5) date 2022-08-08 14:50:09*
%MOMM*%
%LPD*%
G01*
G04 APERTURE LIST*
%ADD10C,0.100000*%
%ADD11R,0.100000X0.300000*%
%ADD12C,1.350000*%
%ADD13C,4.150000*%
G04 APERTURE END LIST*
G04 #@! TO.C,U1*
G36*
X-97166882Y-106050000D02*
G01*
X-108066882Y-106050000D01*
X-108066882Y-105650000D01*
X-97166882Y-105650000D01*
X-97166882Y-106050000D01*
G37*
D10*
X-97166882Y-106050000D02*
X-108066882Y-106050000D01*
X-108066882Y-105650000D01*
X-97166882Y-105650000D01*
X-97166882Y-106050000D01*
G36*
X-118016882Y-90350000D02*
G01*
X-119716882Y-90350000D01*
X-119716882Y-89950000D01*
X-118016882Y-89950000D01*
X-118016882Y-90350000D01*
G37*
X-118016882Y-90350000D02*
X-119716882Y-90350000D01*
X-119716882Y-89950000D01*
X-118016882Y-89950000D01*
X-118016882Y-90350000D01*
G36*
X-118016882Y-106050000D02*
G01*
X-119666882Y-106050000D01*
X-119666882Y-105650000D01*
X-118016882Y-105650000D01*
X-118016882Y-106050000D01*
G37*
X-118016882Y-106050000D02*
X-119666882Y-106050000D01*
X-119666882Y-105650000D01*
X-118016882Y-105650000D01*
X-118016882Y-106050000D01*
G36*
X-109916882Y-106050000D02*
G01*
X-112516882Y-106050000D01*
X-112516882Y-105650000D01*
X-109916882Y-105650000D01*
X-109916882Y-106050000D01*
G37*
X-109916882Y-106050000D02*
X-112516882Y-106050000D01*
X-112516882Y-105650000D01*
X-109916882Y-105650000D01*
X-109916882Y-106050000D01*
G36*
X-97116882Y-90350000D02*
G01*
X-104666882Y-90350000D01*
X-104666882Y-89950000D01*
X-97116882Y-89950000D01*
X-97116882Y-90350000D01*
G37*
X-97116882Y-90350000D02*
X-104666882Y-90350000D01*
X-104666882Y-89950000D01*
X-97116882Y-89950000D01*
X-97116882Y-90350000D01*
G36*
X-109916882Y-90350000D02*
G01*
X-112516882Y-90350000D01*
X-112516882Y-89950000D01*
X-109916882Y-89950000D01*
X-109916882Y-90350000D01*
G37*
X-109916882Y-90350000D02*
X-112516882Y-90350000D01*
X-112516882Y-89950000D01*
X-109916882Y-89950000D01*
X-109916882Y-90350000D01*
G04 #@! TD*
D11*
G04 #@! TO.C,U1*
X-97247982Y-105846400D03*
X-97247982Y-90157120D03*
X-98073982Y-90157120D03*
X-98317982Y-90157120D03*
X-98561982Y-90157120D03*
X-98805982Y-90157120D03*
X-99049982Y-90157120D03*
X-99293982Y-90157120D03*
X-99537982Y-90157120D03*
X-99781982Y-90157120D03*
X-100025982Y-90157120D03*
X-100269982Y-90157120D03*
X-100513982Y-90157120D03*
X-100757982Y-90157120D03*
X-101001982Y-90157120D03*
X-101245982Y-90157120D03*
X-101489982Y-90157120D03*
X-101733982Y-90157120D03*
X-101977982Y-90157120D03*
X-102221982Y-90157120D03*
X-102465982Y-90157120D03*
X-102709982Y-90157120D03*
X-102953982Y-90157120D03*
X-103197982Y-90157120D03*
X-103824282Y-90157120D03*
X-104224282Y-90157120D03*
X-104619282Y-90157120D03*
X-109993282Y-90157120D03*
X-110393282Y-90157120D03*
X-110793282Y-90157120D03*
X-111209282Y-90157120D03*
X-111625282Y-90157120D03*
X-112025282Y-90157120D03*
X-112425282Y-90157120D03*
X-118114282Y-90157120D03*
X-118654782Y-90157120D03*
X-119584782Y-90157120D03*
X-119584782Y-105846400D03*
X-118654782Y-105846400D03*
X-118109982Y-105846400D03*
X-112425282Y-105846400D03*
X-112025282Y-105846400D03*
X-111625282Y-105846400D03*
X-111209282Y-105846400D03*
X-110793282Y-105846400D03*
X-110393282Y-105846400D03*
X-109993282Y-105846400D03*
X-107965482Y-105846400D03*
X-107565482Y-105846400D03*
X-107165482Y-105846400D03*
X-106765482Y-105846400D03*
X-106365482Y-105846400D03*
X-105965482Y-105846400D03*
X-105565482Y-105846400D03*
X-105165482Y-105846400D03*
X-104765482Y-105846400D03*
X-104365482Y-105846400D03*
X-103965482Y-105846400D03*
X-103565482Y-105846400D03*
X-103165482Y-105846400D03*
X-102765482Y-105846400D03*
X-102365482Y-105846400D03*
X-101977982Y-105846400D03*
X-101733982Y-105846400D03*
X-101489982Y-105846400D03*
X-101245982Y-105846400D03*
X-101001982Y-105846400D03*
X-100757982Y-105846400D03*
X-100513982Y-105846400D03*
X-100269982Y-105846400D03*
X-100025982Y-105846400D03*
X-99781982Y-105846400D03*
X-99537982Y-105846400D03*
X-99293982Y-105846400D03*
X-99049982Y-105846400D03*
X-98805982Y-105846400D03*
X-98561982Y-105846400D03*
X-98317982Y-105846400D03*
X-98073982Y-105846400D03*
G04 #@! TD*
D12*
G04 #@! TO.C,J1*
X411164516Y-78183542D03*
X413069516Y-79453542D03*
X411164516Y-80723542D03*
X413069516Y-81993542D03*
X411164516Y-83263542D03*
X413069516Y-84533542D03*
X411164516Y-85803542D03*
X413069516Y-87073542D03*
X411164516Y-88343542D03*
X413069516Y-89613542D03*
X411164516Y-90883542D03*
X413069516Y-92153542D03*
X411164516Y-93423542D03*
X413069516Y-94693542D03*
X411164516Y-95963542D03*
X413069516Y-97233542D03*
X411164516Y-98503542D03*
X413069516Y-99773542D03*
X411164516Y-101043542D03*
X413069516Y-102313542D03*
X411164516Y-103583542D03*
X413069516Y-104853542D03*
X411164516Y-106123542D03*
X413069516Y-107393542D03*
X411164516Y-108663542D03*
X413069516Y-109933542D03*
X411164516Y-111203542D03*
X413069516Y-112473542D03*
X411164516Y-113743542D03*
X413069516Y-115013542D03*
X411164516Y-116283542D03*
X413069516Y-117553542D03*
X411164516Y-118823542D03*
X413069516Y-120093542D03*
X414974516Y-78183542D03*
X416879516Y-79453542D03*
X414974516Y-80723542D03*
X416879516Y-81993542D03*
X414974516Y-83263542D03*
X416879516Y-84533542D03*
X414974516Y-85803542D03*
X416879516Y-87073542D03*
X414974516Y-88343542D03*
X416879516Y-89613542D03*
X414974516Y-90883542D03*
X416879516Y-92153542D03*
X414974516Y-93423542D03*
X416879516Y-94693542D03*
X414974516Y-95963542D03*
X416879516Y-97233542D03*
X414974516Y-98503542D03*
X416879516Y-99773542D03*
X414974516Y-101043542D03*
X416879516Y-102313542D03*
X414974516Y-103583542D03*
X416879516Y-104853542D03*
X414974516Y-106123542D03*
X416879516Y-107393542D03*
X414974516Y-108663542D03*
X416879516Y-109933542D03*
X414974516Y-111203542D03*
X416879516Y-112473542D03*
X414974516Y-113743542D03*
X416879516Y-115013542D03*
X414974516Y-116283542D03*
X416879516Y-117553542D03*
X414974516Y-118823542D03*
X416879516Y-120093542D03*
D13*
X414974516Y-128093542D03*
X414974516Y-70183542D03*
G04 #@! TD*
M02*
