G04 #@! TF.GenerationSoftware,KiCad,Pcbnew,6.0.5*
G04 #@! TF.CreationDate,2022-08-08T14:50:08-05:00*
G04 #@! TF.ProjectId,8ch_mas_flex,3863685f-6d61-4735-9f66-6c65782e6b69,rev?*
G04 #@! TF.SameCoordinates,Original*
G04 #@! TF.FileFunction,Paste,Top*
G04 #@! TF.FilePolarity,Positive*
%FSLAX46Y46*%
G04 Gerber Fmt 4.6, Leading zero omitted, Abs format (unit mm)*
G04 Created by KiCad (PCBNEW 6.0.5) date 2022-08-08 14:50:08*
%MOMM*%
%LPD*%
G01*
G04 APERTURE LIST*
%ADD10R,0.100000X0.300000*%
G04 APERTURE END LIST*
D10*
G04 #@! TO.C,U1*
X-97247982Y-105846400D03*
X-97247982Y-90157120D03*
X-98073982Y-90157120D03*
X-98317982Y-90157120D03*
X-98561982Y-90157120D03*
X-98805982Y-90157120D03*
X-99049982Y-90157120D03*
X-99293982Y-90157120D03*
X-99537982Y-90157120D03*
X-99781982Y-90157120D03*
X-100025982Y-90157120D03*
X-100269982Y-90157120D03*
X-100513982Y-90157120D03*
X-100757982Y-90157120D03*
X-101001982Y-90157120D03*
X-101245982Y-90157120D03*
X-101489982Y-90157120D03*
X-101733982Y-90157120D03*
X-101977982Y-90157120D03*
X-102221982Y-90157120D03*
X-102465982Y-90157120D03*
X-102709982Y-90157120D03*
X-102953982Y-90157120D03*
X-103197982Y-90157120D03*
X-103824282Y-90157120D03*
X-104224282Y-90157120D03*
X-104619282Y-90157120D03*
X-109993282Y-90157120D03*
X-110393282Y-90157120D03*
X-110793282Y-90157120D03*
X-111209282Y-90157120D03*
X-111625282Y-90157120D03*
X-112025282Y-90157120D03*
X-112425282Y-90157120D03*
X-118114282Y-90157120D03*
X-118654782Y-90157120D03*
X-119584782Y-90157120D03*
X-119584782Y-105846400D03*
X-118654782Y-105846400D03*
X-118109982Y-105846400D03*
X-112425282Y-105846400D03*
X-112025282Y-105846400D03*
X-111625282Y-105846400D03*
X-111209282Y-105846400D03*
X-110793282Y-105846400D03*
X-110393282Y-105846400D03*
X-109993282Y-105846400D03*
X-107965482Y-105846400D03*
X-107565482Y-105846400D03*
X-107165482Y-105846400D03*
X-106765482Y-105846400D03*
X-106365482Y-105846400D03*
X-105965482Y-105846400D03*
X-105565482Y-105846400D03*
X-105165482Y-105846400D03*
X-104765482Y-105846400D03*
X-104365482Y-105846400D03*
X-103965482Y-105846400D03*
X-103565482Y-105846400D03*
X-103165482Y-105846400D03*
X-102765482Y-105846400D03*
X-102365482Y-105846400D03*
X-101977982Y-105846400D03*
X-101733982Y-105846400D03*
X-101489982Y-105846400D03*
X-101245982Y-105846400D03*
X-101001982Y-105846400D03*
X-100757982Y-105846400D03*
X-100513982Y-105846400D03*
X-100269982Y-105846400D03*
X-100025982Y-105846400D03*
X-99781982Y-105846400D03*
X-99537982Y-105846400D03*
X-99293982Y-105846400D03*
X-99049982Y-105846400D03*
X-98805982Y-105846400D03*
X-98561982Y-105846400D03*
X-98317982Y-105846400D03*
X-98073982Y-105846400D03*
G04 #@! TD*
M02*
